<svg xmlns="http://www.w3.org/2000/svg" width="80.595" height="1081.047" viewBox="0 0 80.595 1081.047"><defs><style>.a{fill:#ebc06f;}.b{fill:#bf77e2;}</style></defs><g transform="translate(-1816.405)"><path class="a" d="M3,1079.5H-3V0H3Z" transform="translate(1887.5)"/><circle class="a" cx="9.5" cy="9.5" r="9.5" transform="translate(1878 1013.75)"/><g transform="translate(3679.594 1169.75) rotate(180)"><circle class="b" cx="10" cy="10" r="10" transform="translate(1843.188 203)"/><path class="b" d="M6782.234,1016.281l-.4-5.987c43.382-2.892,54.559-53.854,54.667-54.369l.672-689.306c-.072-46.168-.341-166.944-.718-171.215l5.958-.7c.484,3.87.733,154.726.76,171.915l-.736,689.926C6842.256,957.715,6830.1,1013.09,6782.234,1016.281Z" transform="translate(-4987 -6)"/><circle class="b" cx="10" cy="10" r="10" transform="translate(1842.401 942)"/></g></g></svg>